<?xml version="1.0" encoding="UTF-8"?>
<svg id="_Слой_1" data-name="Слой 1" xmlns="http://www.w3.org/2000/svg" viewBox="0 0 786.08 800.5">
  <defs>
    <style>
      .cls-1, .cls-2 {
        stroke-width: 0px;
      }

      .cls-2 {
        fill: #303030;
      }
    </style>
  </defs>
  <polygon class="cls-2" points="605.77 666.92 639.11 733.58 146.97 733.58 180.31 666.92 393.04 666.92 605.77 666.92"/>
  <path class="cls-2" d="m702.01,358.1c30.96,51.42,28.44,150.98-86.97,242.15h-170.12c8.55-19.27,18.77-42.95,29.01-68.19,12.67-31.23,25.54-65.29,35.3-96.53,8.13-26.02,14.98-52.75,16.72-74.96,39.06-37.27,75.44-48.83,103.52-47.48,30.13,1.46,56.23,17.93,72.54,45.01Z"/>
  <path class="cls-2" d="m459.67,347.27c.02.98.04,1.98.04,2.98,0,12.89-4.79,35.56-14.11,65.4-8.99,28.78-21.12,60.96-33.45,91.35-6.51,16.06-13.04,31.51-19.11,45.54-6.07-14.03-12.59-29.48-19.11-45.54-12.33-30.39-24.46-62.57-33.45-91.35-9.32-29.84-14.11-52.51-14.11-65.4,0-1,.02-2,.04-2.98,1.33-51.05,34.62-80.35,66.63-80.35s65.3,29.3,66.63,80.35Z"/>
  <path class="cls-2" d="m341.16,600.25h-170.12c-115.4-91.17-117.93-190.73-86.97-242.15,16.31-27.08,42.42-43.55,72.55-45.01,28.07-1.35,64.45,10.21,103.51,47.49,1.74,22.2,8.59,48.93,16.72,74.95,9.76,31.24,22.63,65.3,35.3,96.53,10.24,25.24,20.46,48.92,29.01,68.19Z"/>
  <path class="cls-1" d="m759.12,323.71c51.48,85.48,32.37,214.74-90.86,319.11l30.47,60.95c22.17,44.33-10.06,96.48-59.62,96.48H146.97c-49.55,0-81.79-52.15-59.62-96.48l30.47-60.95C-5.41,538.45-24.51,409.19,26.96,323.71c26.75-44.41,72.17-74.58,126.44-77.2,39.16-1.9,80.02,10.63,119.33,38.26,16.43-38.93,47.4-69.09,86.98-80.04v-71.15h-33.34c-18.41,0-33.33-14.92-33.33-33.33s14.92-33.33,33.33-33.33h33.34v-33.34c0-18.41,14.92-33.33,33.33-33.33s33.33,14.92,33.33,33.33v33.34h33.34c18.41,0,33.33,14.92,33.33,33.33s-14.92,33.33-33.33,33.33h-33.34v71.15c39.58,10.95,70.55,41.11,86.99,80.04,39.3-27.63,80.17-40.16,119.32-38.27,54.27,2.63,99.7,32.8,126.44,77.21Zm-144.08,276.54c115.41-91.17,117.93-190.73,86.97-242.15-16.31-27.08-42.41-43.55-72.54-45.01-28.08-1.35-64.46,10.21-103.52,47.48-1.74,22.21-8.59,48.94-16.72,74.96-9.76,31.24-22.63,65.3-35.3,96.53-10.24,25.24-20.46,48.92-29.01,68.19h170.12Zm24.07,133.33l-33.34-66.66H180.31l-33.34,66.66h492.14Zm-179.4-383.33c0-1-.02-2-.04-2.98-1.33-51.05-34.62-80.35-66.63-80.35s-65.3,29.3-66.63,80.35c-.02.98-.04,1.98-.04,2.98,0,12.89,4.79,35.56,14.11,65.4,8.99,28.78,21.12,60.96,33.45,91.35,6.52,16.06,13.04,31.51,19.11,45.54,6.07-14.03,12.6-29.48,19.11-45.54,12.33-30.39,24.46-62.57,33.45-91.35,9.32-29.84,14.11-52.51,14.11-65.4Zm-288.67,250h170.12c-8.55-19.27-18.77-42.95-29.01-68.19-12.67-31.23-25.54-65.29-35.3-96.53-8.13-26.02-14.98-52.75-16.72-74.95-39.06-37.28-75.44-48.84-103.51-47.49-30.13,1.46-56.24,17.93-72.55,45.01-30.96,51.42-28.43,150.98,86.97,242.15Z"/>
</svg>